<svg width="75" height="100" viewBox="0 0 75 100" fill="none" xmlns="http://www.w3.org/2000/svg">
<path d="M2.73438 18.7095C2.73438 8.3765 11.1109 0 21.4439 0H53.5471C63.8801 0 72.2566 8.3765 72.2566 18.7095C72.2566 25.2523 68.898 31.0109 63.8107 34.3549C68.898 37.699 72.2566 43.4574 72.2566 50.0004C72.2566 60.3334 63.8801 68.71 53.5471 68.71H53.1408C48.2967 68.71 43.8824 66.8689 40.5598 63.8484V81.0873C40.5598 91.558 31.9643 100 21.5447 100C11.2375 100 2.73438 91.649 2.73438 81.2904C2.73438 74.7478 6.09268 68.9896 11.1795 65.6455C6.09268 62.3014 2.73438 56.543 2.73438 50.0004C2.73438 43.4574 6.09297 37.699 11.1802 34.3549C6.09297 31.0109 2.73438 25.2523 2.73438 18.7095ZM34.4312 37.4193H21.4439C14.4955 37.4193 8.86285 43.0522 8.86285 50.0004C8.86285 56.9219 14.4521 62.5379 21.3635 62.5812C21.3902 62.5811 21.417 62.5811 21.4439 62.5811H34.4312V37.4193ZM40.5598 50.0004C40.5598 56.9486 46.1924 62.5814 53.1408 62.5814H53.5471C60.4955 62.5814 66.1281 56.9486 66.1281 50.0004C66.1281 43.0522 60.4955 37.4193 53.5471 37.4193H53.1408C46.1924 37.4193 40.5598 43.0522 40.5598 50.0004ZM21.4439 68.71C21.417 68.71 21.3902 68.7098 21.3635 68.7098C14.4521 68.7529 8.86285 74.3689 8.86285 81.2904C8.86285 88.2133 14.5708 93.8715 21.5447 93.8715C28.6311 93.8715 34.4312 88.1223 34.4312 81.0873V68.71H21.4439ZM21.4439 6.12848C14.4955 6.12848 8.86285 11.7612 8.86285 18.7095C8.86285 25.6578 14.4955 31.2904 21.4439 31.2904H34.4312V6.12848H21.4439ZM40.5598 31.2904H53.5471C60.4955 31.2904 66.1281 25.6578 66.1281 18.7095C66.1281 11.7612 60.4955 6.12848 53.5471 6.12848H40.5598V31.2904Z" fill="#1E1E1E"/>
</svg>
