<svg width="110" height="110" viewBox="0 0 110 110" fill="none" xmlns="http://www.w3.org/2000/svg">
<path d="M101.31 50.7134L59.2866 8.69C58.7117 8.11316 58.0287 7.65547 57.2766 7.34317C56.5245 7.03087 55.7181 6.87012 54.9037 6.87012C54.0894 6.87012 53.283 7.03087 52.5309 7.34317C51.7788 7.65547 51.0958 8.11316 50.5209 8.69L41.7931 17.4178L52.8619 28.4866C54.1671 28.0424 55.5709 27.9738 56.9132 28.2885C58.2556 28.6033 59.4825 29.2889 60.4542 30.267C61.4259 31.2451 62.1033 32.4766 62.4092 33.821C62.7151 35.1654 62.6372 36.5687 62.1844 37.8709L72.8406 48.5272C74.4335 47.98 76.1657 47.9951 77.7488 48.5701C79.3318 49.145 80.6701 50.2451 81.5405 51.6869C82.4109 53.1288 82.761 54.8254 82.5324 56.494C82.3038 58.1627 81.5103 59.7026 80.2841 60.8572C79.0579 62.0118 77.4731 62.7114 75.7938 62.8394C74.1144 62.9673 72.4419 62.516 71.0549 61.5605C69.668 60.6051 68.6503 59.2032 68.1714 57.5884C67.6926 55.9737 67.7815 54.2437 68.4234 52.6866L58.4719 42.735V68.9184C59.9794 69.6653 61.1854 70.9062 61.8892 72.4343C62.593 73.9624 62.752 75.6855 62.3398 77.3166C61.9275 78.9476 60.9688 80.3882 59.6235 81.3984C58.2781 82.4086 56.6273 82.9273 54.946 82.8682C53.2646 82.8091 51.6543 82.1758 50.3832 81.0736C49.112 79.9715 48.2569 78.4671 47.9602 76.8111C47.6634 75.1551 47.943 73.4475 48.7524 71.9725C49.5617 70.4976 50.8519 69.3445 52.4081 68.7053V42.2812C51.5078 41.9119 50.6895 41.368 50.0003 40.681C49.3111 39.994 48.7646 39.1774 48.3924 38.2782C48.0201 37.3791 47.8295 36.4152 47.8314 35.4421C47.8333 34.4689 48.0277 33.5058 48.4034 32.6081L37.5066 21.7044L8.69 50.5312C8.11264 51.1061 7.65452 51.7894 7.34192 52.5418C7.02931 53.2943 6.86839 54.101 6.86839 54.9158C6.86839 55.7305 7.02931 56.5373 7.34192 57.2897C7.65452 58.0421 8.11264 58.7254 8.69 59.3003L50.7134 101.31C51.2883 101.887 51.9713 102.345 52.7234 102.657C53.4755 102.969 54.2819 103.13 55.0963 103.13C55.9106 103.13 56.717 102.969 57.4691 102.657C58.2212 102.345 58.9042 101.887 59.4791 101.31L101.31 59.4687C101.887 58.8938 102.345 58.2106 102.658 57.4582C102.971 56.7057 103.132 55.899 103.132 55.0842C103.132 54.2694 102.971 53.4627 102.658 52.7103C102.345 51.9579 101.887 51.2746 101.31 50.6997" fill="#1E1E1E"/>
<path d="M41.7931 17.4178L52.8619 28.4866C54.1671 28.0424 55.5709 27.9738 56.9132 28.2886C58.2556 28.6033 59.4825 29.2889 60.4542 30.267C61.4259 31.2452 62.1033 32.4766 62.4092 33.821C62.7151 35.1654 62.6372 36.5687 62.1844 37.8709L72.8406 48.5272C74.4335 47.98 76.1657 47.9951 77.7488 48.5701C79.3318 49.145 80.6701 50.2451 81.5405 51.687C82.4109 53.1288 82.761 54.8254 82.5324 56.4941C82.3038 58.1627 81.5103 59.7026 80.2841 60.8572C79.0579 62.0118 77.4731 62.7114 75.7938 62.8394C74.1144 62.9674 72.4419 62.516 71.0549 61.5605C69.668 60.6051 68.6503 59.2032 68.1714 57.5885C67.6926 55.9737 67.7815 54.2437 68.4234 52.6866L58.4719 42.735V68.9184C59.9794 69.6654 61.1854 70.9062 61.8892 72.4343C62.593 73.9624 62.752 75.6855 62.3398 77.3166C61.9275 78.9477 60.9688 80.3883 59.6235 81.3984C58.2781 82.4086 56.6273 82.9273 54.946 82.8682C53.2646 82.8091 51.6543 82.1758 50.3832 81.0736C49.112 79.9715 48.2569 78.4672 47.9602 76.8112C47.6634 75.1552 47.943 73.4475 48.7523 71.9726C49.5617 70.4977 50.8519 69.3445 52.4081 68.7053V42.2813C51.5078 41.9119 50.6895 41.368 50.0003 40.681C49.3111 39.994 48.7646 39.1774 48.3924 38.2782C48.0201 37.3791 47.8295 36.4152 47.8314 35.4421C47.8333 34.4689 48.0277 33.5058 48.4034 32.6081L37.5066 21.7044" fill="white"/>
</svg>
