<svg width="100" height="100" viewBox="0 0 100 100" fill="none" xmlns="http://www.w3.org/2000/svg">
<g clip-path="url(#clip0_305_110)">
<path d="M0 0H100V100H0" fill="#181717"/>
<path d="M65.4297 97.4609C62.8906 97.4609 62.3047 96.289 62.3047 95.1172L62.5 81.4453C62.5 76.7578 60.9375 73.6328 58.9844 72.0703C70.1172 70.8984 81.8359 66.6015 81.8359 47.4609C81.8359 41.9922 79.8828 37.5 76.7578 33.9843C77.3437 32.8125 78.9062 27.7343 76.1719 20.8984C76.1719 20.8984 72.0703 19.5312 62.5 25.9765C54.2969 23.6328 45.7031 23.6328 37.5 25.9765C27.9297 19.5312 23.8281 20.8984 23.8281 20.8984C21.0938 27.7343 22.6562 32.8125 23.2422 33.9843C20.1172 37.5 18.1641 41.9922 18.1641 47.4609C18.1641 66.6015 29.6875 70.8984 40.8203 72.0703C39.4531 73.4375 38.0859 75.5859 37.6953 78.9062C34.7656 80.0781 27.5391 82.2265 23.2422 74.6093C23.2422 74.6093 20.5078 69.9218 15.4297 69.5312C15.4297 69.5312 10.5469 69.5312 15.2344 72.6562C15.2344 72.6562 18.3594 74.0234 20.7031 79.8828C20.7031 79.8828 23.6328 89.6484 37.5 86.5234L37.6953 95.1172C37.6953 96.289 37.1094 97.4609 34.5703 97.4609C31.8359 97.4609 32.2266 100.781 32.2266 100.781H67.7734C67.7734 100.781 68.1641 97.4609 65.4297 97.4609Z" fill="white"/>
</g>
<defs>
<clipPath id="clip0_305_110">
<rect width="100" height="100" rx="10" fill="white"/>
</clipPath>
</defs>
</svg>
