<svg width="100" height="100" viewBox="0 0 100 100" fill="none" xmlns="http://www.w3.org/2000/svg">
<path d="M50.0042 37.5C46.689 37.5 43.5095 38.817 41.1653 41.1612C38.8211 43.5054 37.5042 46.6848 37.5042 50C37.5042 53.3153 38.8211 56.4947 41.1653 58.8389C43.5095 61.1831 46.689 62.5 50.0042 62.5C53.3194 62.5 56.4988 61.1831 58.843 58.8389C61.1872 56.4947 62.5042 53.3153 62.5042 50C62.5042 46.6848 61.1872 43.5054 58.843 41.1612C56.4988 38.817 53.3194 37.5 50.0042 37.5ZM50.0042 29.1667C55.5295 29.1667 60.8285 31.3616 64.7356 35.2687C68.6426 39.1757 70.8375 44.4747 70.8375 50C70.8375 55.5254 68.6426 60.8244 64.7356 64.7314C60.8285 68.6384 55.5295 70.8334 50.0042 70.8334C44.4788 70.8334 39.1798 68.6384 35.2728 64.7314C31.3658 60.8244 29.1708 55.5254 29.1708 50C29.1708 44.4747 31.3658 39.1757 35.2728 35.2687C39.1798 31.3616 44.4788 29.1667 50.0042 29.1667ZM77.0875 28.125C77.0875 29.5064 76.5388 30.8311 75.562 31.8079C74.5853 32.7846 73.2605 33.3334 71.8792 33.3334C70.4978 33.3334 69.1731 32.7846 68.1963 31.8079C67.2196 30.8311 66.6708 29.5064 66.6708 28.125C66.6708 26.7437 67.2196 25.4189 68.1963 24.4422C69.1731 23.4654 70.4978 22.9167 71.8792 22.9167C73.2605 22.9167 74.5853 23.4654 75.562 24.4422C76.5388 25.4189 77.0875 26.7437 77.0875 28.125ZM50.0042 16.6667C39.6958 16.6667 38.0125 16.6959 33.2167 16.9084C29.95 17.0625 27.7583 17.5 25.725 18.2917C24.0234 18.9164 22.485 19.9178 21.225 21.2209C19.9209 22.4809 18.9181 24.0191 18.2917 25.7209C17.5 27.7625 17.0625 29.95 16.9125 33.2125C16.6958 37.8125 16.6667 39.4209 16.6667 50C16.6667 60.3125 16.6958 61.9917 16.9083 66.7875C17.0625 70.05 17.5 72.2459 18.2875 74.275C18.9958 76.0875 19.8292 77.3917 21.2125 78.775C22.6167 80.175 23.9208 81.0125 25.7125 81.7042C27.7708 82.5 29.9625 82.9417 33.2125 83.0917C37.8125 83.3084 39.4208 83.3334 50 83.3334C60.3125 83.3334 61.9917 83.3042 66.7875 83.0917C70.0458 82.9375 72.2375 82.5 74.275 81.7125C75.9751 81.0847 77.5128 80.0838 78.775 78.7834C80.1792 77.3834 81.0167 76.0792 81.7083 74.2834C82.5 72.2334 82.9417 70.0417 83.0917 66.7834C83.3083 62.1875 83.3333 60.575 83.3333 50C83.3333 39.6917 83.3042 38.0084 83.0917 33.2125C82.9375 29.9542 82.4958 27.7542 81.7083 25.7209C81.0803 24.0209 80.0794 22.4833 78.7792 21.2209C77.5197 19.9161 75.9813 18.9132 74.2792 18.2875C72.2375 17.4959 70.0458 17.0584 66.7875 16.9084C62.1917 16.6917 60.5875 16.6667 50.0042 16.6667ZM50.0042 8.33337C61.325 8.33337 62.7375 8.37504 67.1833 8.58337C71.6167 8.79171 74.6417 9.48754 77.2958 10.5209C80.0458 11.5792 82.3625 13.0125 84.6792 15.325C86.7979 17.4079 88.4373 19.9275 89.4833 22.7084C90.5125 25.3625 91.2125 28.3875 91.4208 32.825C91.6167 37.2667 91.6708 38.6792 91.6708 50C91.6708 61.3209 91.6292 62.7334 91.4208 67.175C91.2125 71.6125 90.5125 74.6334 89.4833 77.2917C88.4402 80.0741 86.8004 82.5942 84.6792 84.675C82.5957 86.793 80.0763 88.4324 77.2958 89.4792C74.6417 90.5084 71.6167 91.2084 67.1833 91.4167C62.7375 91.6125 61.325 91.6667 50.0042 91.6667C38.6833 91.6667 37.2708 91.625 32.825 91.4167C28.3917 91.2084 25.3708 90.5084 22.7125 89.4792C19.9305 88.4354 17.4105 86.7957 15.3292 84.675C13.2101 82.5924 11.5707 80.0728 10.525 77.2917C9.49166 74.6375 8.79583 71.6125 8.58749 67.175C8.38749 62.7334 8.33749 61.3209 8.33749 50C8.33749 38.6792 8.37916 37.2667 8.58749 32.825C8.79583 28.3834 9.49166 25.3667 10.525 22.7084C11.5676 19.9258 13.2075 17.4055 15.3292 15.325C17.4111 13.2052 19.9309 11.5656 22.7125 10.5209C25.3667 9.48754 28.3875 8.79171 32.825 8.58337C37.2708 8.38754 38.6833 8.33337 50.0042 8.33337Z" fill="#1E1E1E"/>
</svg>
