<svg xmlns="http://www.w3.org/2000/svg" xmlns:xlink="http://www.w3.org/1999/xlink" width="500" zoomAndPan="magnify" viewBox="0 0 375 374.999991" height="500" preserveAspectRatio="xMidYMid meet" version="1.0"><defs><g/><clipPath id="d33b8d54c4"><path d="M 187.5 0 C 83.945312 0 0 83.945312 0 187.5 C 0 291.054688 83.945312 375 187.5 375 C 291.054688 375 375 291.054688 375 187.5 C 375 83.945312 291.054688 0 187.5 0 Z M 187.5 0 " clip-rule="nonzero"/></clipPath><clipPath id="4ae5300303"><path d="M 0 0 L 375 0 L 375 375 L 0 375 Z M 0 0 " clip-rule="nonzero"/></clipPath><clipPath id="31667d8e63"><path d="M 187.5 0 C 83.945312 0 0 83.945312 0 187.5 C 0 291.054688 83.945312 375 187.5 375 C 291.054688 375 375 291.054688 375 187.5 C 375 83.945312 291.054688 0 187.5 0 Z M 187.5 0 " clip-rule="nonzero"/></clipPath><clipPath id="f2c6d515af"><rect x="0" width="375" y="0" height="375"/></clipPath><clipPath id="96c02ebfd3"><rect x="0" width="184" y="0" height="375"/></clipPath></defs><g clip-path="url(#d33b8d54c4)"><g transform="matrix(1, 0, 0, 1, 0, 0)"><g clip-path="url(#f2c6d515af)"><g clip-path="url(#4ae5300303)"><g clip-path="url(#31667d8e63)"><rect x="-82.5" width="540" fill="#1e1e1e" height="539.999987" y="-82.499998" fill-opacity="1"/></g></g></g></g></g><g transform="matrix(1, 0, 0, 1, 96, 0)"><g clip-path="url(#96c02ebfd3)"><g fill="#38502c" fill-opacity="1"><g transform="translate(0.245316, 294.070833)"><g><path d="M 158.515625 -221.671875 L 158.515625 -70.734375 C 158.515625 -47.367188 151.9375 -29.367188 138.78125 -16.734375 C 125.625 -4.109375 107.890625 2.203125 85.578125 2.203125 C 62.203125 2.203125 43.460938 -4.425781 29.359375 -17.6875 C 15.253906 -30.945312 8.203125 -49.785156 8.203125 -74.203125 L 61.890625 -74.203125 C 61.890625 -64.941406 63.78125 -57.941406 67.5625 -53.203125 C 71.351562 -48.472656 76.832031 -46.109375 84 -46.109375 C 90.519531 -46.109375 95.566406 -48.210938 99.140625 -52.421875 C 102.722656 -56.628906 104.515625 -62.734375 104.515625 -70.734375 L 104.515625 -221.671875 Z M 158.515625 -221.671875 "/></g></g></g></g></g></svg>