<svg width="75" height="100" viewBox="0 0 75 100" fill="none" xmlns="http://www.w3.org/2000/svg">
<path d="M47.2484 0C49.5377 2.60665 50.2931 6.33339 49.6352 9.69485C48.9283 13.4707 46.8341 16.8073 44.3735 19.6823C42.401 21.9963 40.1348 24.0427 37.7729 25.9424C35.0202 28.1589 32.3161 30.5463 30.5871 33.6642C29.1254 36.1976 28.7844 39.3149 29.7833 42.0676C31.4152 46.7927 35.2153 50.3007 37.2858 54.758C34.996 52.736 32.7546 50.6412 30.6604 48.4246C28.4681 46.0863 26.3976 43.6014 25.034 40.6786C24.1083 38.6323 23.6946 36.2449 24.4009 34.0774C25.1072 31.8609 26.6902 30.0829 28.2737 28.4267C32.6825 24.0173 38.1145 20.7781 42.4258 16.296C44.8132 13.8354 46.7862 10.8882 47.4677 7.50255C48.0275 5.01824 47.7597 2.46065 47.2484 0Z" fill="black"/>
<path d="M43.6429 27.7446C48.3686 24.2619 53.8981 22.0448 59.5003 20.4371C55.0672 23.2624 50.4391 25.8448 46.6148 29.4741C45.2264 30.8134 43.9112 32.3485 43.3024 34.224C42.8396 35.6124 43.0347 37.1463 43.595 38.4626C44.6176 40.8009 46.3471 42.7012 47.6628 44.8444C48.7829 46.6715 48.9779 49.0098 48.1256 50.9828C46.8347 53.8814 44.3013 56.0005 41.6704 57.6815C41.3294 57.8759 41.0374 58.2418 40.6231 58.2903C42.3774 56.7074 43.741 54.466 43.6919 52.0544C43.6435 50.2522 42.6451 48.6687 41.4754 47.3778C39.0638 44.504 37.0423 40.8499 37.4567 36.9772C37.871 33.1044 40.6467 29.9853 43.6429 27.7446Z" fill="black"/>
<path d="M60.4017 55.9029C61.4243 54.6611 63.0562 54.3443 64.5428 54.1492C67.1246 53.8082 69.8767 54.466 71.8255 56.244C73.4332 57.6815 74.3346 59.9223 73.9935 62.0903C73.6283 64.5994 71.9472 66.6942 70.0475 68.2777C66.6133 71.0304 62.3747 72.6381 58.1361 73.7097C58.3796 73.4414 58.6474 73.1979 58.9642 73.0028C62.1791 71.2733 65.3703 69.2518 67.7334 66.4265C69.1703 64.6722 70.291 62.3829 69.8282 60.0688C69.3412 57.3889 66.7351 55.4401 64.08 55.2947C62.8133 55.1718 61.6199 55.6594 60.4017 55.9029Z" fill="black"/>
<path d="M11.4415 58.1195C15.9237 56.1949 20.7948 54.9531 25.6912 55.0258C22.8417 55.8544 19.9188 56.5608 17.2388 57.8269C16.6058 58.1679 15.8746 58.4847 15.5093 59.142C15.3143 59.6539 15.8504 59.995 16.2399 60.1646C17.8961 60.8473 19.7231 60.9448 21.5011 61.1145C27.737 61.5288 33.9971 61.2853 40.2087 60.8952C46.3465 60.5051 52.4363 59.6776 58.5014 58.7029C57.162 59.3365 55.7978 59.9696 54.5559 60.7734C53.9223 61.212 53.1427 61.3338 52.4363 61.504C44.9828 63.1608 37.3343 63.6721 29.7342 63.7944C26.7871 63.8187 23.8642 63.7702 20.9408 63.5745C17.6768 63.3558 14.3887 63.1117 11.1974 62.26C10.2718 61.9916 9.29771 61.6996 8.56656 61.0418C8.20127 60.7498 8.20127 60.1646 8.51751 59.8241C9.32195 58.9966 10.4426 58.6065 11.4415 58.1195Z" fill="black"/>
<path d="M17.1898 68.5206C18.4565 67.5223 19.9667 66.962 21.4769 66.4259C20.9898 67.0104 20.3077 67.5702 20.2592 68.3747C20.235 68.8859 20.6488 69.276 21.0631 69.519C21.867 69.9333 22.7683 70.0793 23.6697 70.2017C28.3464 70.6887 33.072 70.9565 37.7977 70.6397C42.109 70.4204 46.3961 69.714 50.6589 68.9592C51.8281 70.0551 53.2165 70.8105 54.6783 71.4683C49.5383 72.9785 44.2528 73.8557 38.942 74.2695C33.9244 74.6105 28.8334 74.5863 23.84 73.7818C21.867 73.4165 19.8455 73.0022 18.0427 72.0766C17.3121 71.6871 16.4834 71.1758 16.2647 70.3234C16.1181 69.5923 16.6537 68.9344 17.1898 68.5206Z" fill="black"/>
<path d="M20.0151 79.1406C21.1358 78.2392 22.5243 77.7769 23.8879 77.3868C23.4493 77.8012 22.6703 78.3125 23.0107 79.0188C23.6686 79.8717 24.8862 79.9687 25.8603 80.188C29.9772 80.6998 34.1425 81.0409 38.2588 80.7241C41.3761 80.529 44.4456 79.9687 47.4908 79.4332C49.2446 80.4557 51.0716 81.3329 52.9471 82.1131C50.0732 83.4034 46.979 84.2321 43.8858 84.8167C38.6731 85.7423 33.2902 85.8641 28.0526 85.0365C25.7386 84.6216 23.376 84.0867 21.2813 82.9412C20.4774 82.4784 19.625 81.9428 19.284 81.0415C19.0168 80.334 19.4554 79.5797 20.0151 79.1406Z" fill="black"/>
<path d="M6.49658 86.0343C8.73736 85.2789 11.0514 84.6701 13.414 84.5968C14.3638 84.5726 15.3379 84.621 16.1666 85.1087C13.3413 85.2795 10.5159 85.9858 7.98255 87.2767C7.42221 87.5935 6.78916 87.9588 6.56987 88.6161C6.56987 89.3715 7.42221 89.6145 7.98255 89.858C11.5148 91.1737 15.29 91.5875 18.9925 91.9776C30.0274 92.9032 41.1343 92.6597 52.1686 91.6608C56.3339 91.1979 60.524 90.7351 64.567 89.5902C65.8573 89.1516 67.3191 88.7131 68.172 87.5682C68.6839 86.886 68.3428 86.0343 67.8315 85.4491C68.6596 85.9125 69.8288 86.4965 69.6585 87.6172C69.3417 88.7858 68.1483 89.3952 67.1736 89.9555C64.0563 91.539 60.621 92.3434 57.211 93.0486C47.2975 94.9974 37.1398 95.4366 27.0554 95.144C19.4559 94.8756 11.8559 94.1451 4.35333 92.8542C3.01394 92.5373 1.50373 92.2696 0.529056 91.2222C-0.104572 90.491 0.456345 89.4685 1.06516 88.9324C2.59902 87.5203 4.57204 86.7406 6.49658 86.0343Z" fill="black"/>
<path d="M67.1973 94.365C69.6579 93.512 72.2882 92.6112 74.1153 90.6624C73.799 92.7815 71.972 94.2426 70.1692 95.1931C66.7102 96.9958 62.8375 97.8245 58.9884 98.506C50.8528 99.797 42.5949 100.113 34.3375 99.9672C28.711 99.797 23.0355 99.5777 17.506 98.4079C16.1908 98.0426 14.7776 97.7991 13.6332 97.0201C18.5534 97.8488 23.5474 98.1892 28.5408 98.3837C36.7497 98.6278 44.9828 98.311 53.1426 97.2878C57.8683 96.6306 62.6182 95.8261 67.1973 94.365Z" fill="black"/>
</svg>
