<svg width="100" height="100" viewBox="0 0 100 100" fill="none" xmlns="http://www.w3.org/2000/svg">
<path d="M16.6667 83.3333C14.375 83.3333 12.4125 82.5166 10.7792 80.8833C9.14583 79.25 8.33056 77.2889 8.33334 75V25C8.33334 22.7083 9.15 20.7458 10.7833 19.1125C12.4167 17.4791 14.3778 16.6639 16.6667 16.6666H83.3333C85.625 16.6666 87.5875 17.4833 89.2208 19.1166C90.8542 20.75 91.6695 22.7111 91.6667 25V75C91.6667 77.2916 90.85 79.2541 89.2167 80.8875C87.5833 82.5208 85.6222 83.3361 83.3333 83.3333H16.6667ZM83.3333 33.3333L52.1875 52.8125C51.8403 53.0208 51.475 53.1777 51.0917 53.2833C50.7083 53.3889 50.3445 53.4402 50 53.4375C49.6528 53.4375 49.2875 53.3861 48.9042 53.2833C48.5208 53.1805 48.157 53.0236 47.8125 52.8125L16.6667 33.3333V75H83.3333V33.3333ZM50 45.8333L83.3333 25H16.6667L50 45.8333ZM16.6667 34.375V28.2291V28.3333V28.2833V34.375Z" fill="#1E1E1E"/>
</svg>
