<svg width="100" height="100" viewBox="0 0 100 100" fill="none" xmlns="http://www.w3.org/2000/svg">
<g clip-path="url(#clip0_301_147)">
<path d="M46.7288 0.0781168C46.514 0.0976461 45.8305 0.165999 45.2153 0.214822C31.0272 1.49399 17.7375 9.1495 9.32038 20.9159C4.63334 27.4583 1.63559 34.8794 0.502886 42.74C0.102534 45.4838 0.0537109 46.2943 0.0537109 50.0146C0.0537109 53.735 0.102534 54.5455 0.502886 57.2893C3.21746 76.0473 16.5658 91.8074 34.6695 97.6467C37.9113 98.6915 41.329 99.4044 45.2153 99.834C46.7288 100 53.2712 100 54.7847 99.834C61.493 99.0919 67.1761 97.4319 72.781 94.5708C73.6403 94.1314 73.8063 94.0143 73.6891 93.9166C73.611 93.858 69.9492 88.9464 65.5551 83.0095L57.5676 72.2195L47.5588 57.4065C42.0516 49.2628 37.5208 42.6033 37.4817 42.6033C37.4426 42.5935 37.4036 49.1749 37.384 57.2112C37.3548 71.2821 37.345 71.8484 37.1692 72.1805C36.9153 72.6589 36.7201 72.8542 36.3099 73.069C35.9975 73.2253 35.7241 73.2546 34.2496 73.2546H32.5603L32.1111 72.9714C31.8182 72.7859 31.6034 72.5417 31.4569 72.2586L31.2518 71.8192L31.2714 52.241L31.3007 32.6531L31.6034 32.2722C31.7596 32.0672 32.0916 31.8035 32.326 31.6766C32.7263 31.4813 32.8825 31.4618 34.5718 31.4618C36.5638 31.4618 36.8958 31.5399 37.4133 32.1062C37.5598 32.2625 42.9792 40.4257 49.4629 50.2588C55.9467 60.0918 64.813 73.5182 69.1681 80.1094L77.0774 92.0906L77.4778 91.827C81.0224 89.5225 84.772 86.2416 87.7405 82.8239C94.0582 75.5688 98.1301 66.722 99.4971 57.2893C99.8975 54.5455 99.9463 53.735 99.9463 50.0146C99.9463 46.2943 99.8975 45.4838 99.4971 42.74C96.7825 23.982 83.4342 8.22185 65.3305 2.38258C62.1375 1.34752 58.7394 0.634703 54.9312 0.205058C53.9938 0.107411 47.5393 -5.81145e-07 46.7288 0.0781168ZM67.1761 30.29C67.6448 30.5244 68.0256 30.9735 68.1623 31.4422C68.2404 31.6961 68.2599 37.1253 68.2404 49.3604L68.2111 66.9173L65.1157 62.1717L62.0106 57.426V44.6636C62.0106 36.4125 62.0496 31.7742 62.1082 31.5497C62.2644 31.0028 62.6062 30.5732 63.0749 30.3193C63.4753 30.1142 63.6217 30.0947 65.1548 30.0947C66.5999 30.0947 66.8538 30.1142 67.1761 30.29Z" fill="#1E1E1E"/>
<path d="M76.5892 92.3054C76.2474 92.5203 76.14 92.6667 76.4427 92.5007C76.6575 92.3738 77.0091 92.1101 76.9505 92.1004C76.9212 92.1004 76.7552 92.198 76.5892 92.3054ZM75.9154 92.7448C75.7397 92.8815 75.7397 92.8913 75.9545 92.7839C76.0717 92.7253 76.1693 92.657 76.1693 92.6374C76.1693 92.5593 76.1205 92.5788 75.9154 92.7448ZM75.4272 93.0378C75.2514 93.1745 75.2514 93.1843 75.4663 93.0768C75.5834 93.0183 75.6811 92.9499 75.6811 92.9304C75.6811 92.8523 75.6323 92.8718 75.4272 93.0378ZM74.939 93.3307C74.7632 93.4674 74.7632 93.4772 74.978 93.3698C75.0952 93.3112 75.1928 93.2428 75.1928 93.2233C75.1928 93.1452 75.144 93.1647 74.939 93.3307ZM74.1969 93.7213C73.8258 93.9166 73.8453 93.9947 74.2164 93.8092C74.3824 93.7213 74.5093 93.6334 74.5093 93.6139C74.5093 93.5455 74.4996 93.5553 74.1969 93.7213Z" fill="#1E1E1E"/>
</g>
<defs>
<clipPath id="clip0_301_147">
<rect width="100" height="100" fill="white"/>
</clipPath>
</defs>
</svg>
