<svg width="97" height="110" viewBox="0 0 97 110" fill="none" xmlns="http://www.w3.org/2000/svg">
<g clip-path="url(#clip0_301_150)">
<path d="M36.0508 7.82032C26.3399 9.53907 24.5781 13.127 24.5781 19.7656V28.5098H47.5449V31.4316H15.9629C9.28126 31.4316 3.43751 35.4492 1.61134 43.0762C-0.494132 51.8203 -0.58007 57.2773 1.61134 66.4082C3.24415 73.1973 7.13282 78.0527 13.8145 78.0527H21.6992V67.5684C21.6992 59.9844 28.252 53.3027 36.0508 53.3027H58.9961C65.377 53.3027 70.4688 48.0391 70.4688 41.6367V19.7441C70.4688 13.5137 65.2266 8.85157 58.9961 7.79883C51.3047 6.53125 42.9473 6.59571 36.0508 7.82032ZM34.6113 13.9219C36.9746 13.9219 38.9297 15.8984 38.9297 18.3047C38.9297 20.7109 36.9961 22.666 34.6113 22.666C32.2266 22.666 30.293 20.7109 30.293 18.3047C30.3145 15.877 32.2266 13.9219 34.6113 13.9219ZM74.4004 31.4102V41.6152C74.4004 49.5215 67.6973 56.1816 60.0488 56.1816H37.1035C30.8301 56.1816 25.6309 61.5527 25.6309 67.8476V89.7188C25.6309 95.9492 31.0449 99.6016 37.1035 101.385C44.3652 103.512 51.3477 103.898 60.0488 101.385C65.8281 99.709 71.5215 96.3359 71.5215 89.7188V80.9746H48.5977V78.0527H83.0156C89.6973 78.0527 92.168 73.3906 94.4883 66.4082C96.8945 59.2109 96.7871 52.293 94.4883 43.0762C92.834 36.4375 89.6973 31.4316 83.0156 31.4316H74.4004V31.4102ZM61.4883 86.7969C63.8731 86.7969 65.8066 88.7519 65.8066 91.1582C65.8066 93.5859 63.8731 95.541 61.4883 95.541C59.125 95.541 57.1699 93.5644 57.1699 91.1582C57.1914 88.7305 59.125 86.7969 61.4883 86.7969Z" fill="#1E1E1E"/>
</g>
<defs>
<clipPath id="clip0_301_150">
<rect width="96.25" height="110" fill="white"/>
</clipPath>
</defs>
</svg>
