<svg width="101" height="100" viewBox="0 0 101 100" fill="none" xmlns="http://www.w3.org/2000/svg">
<g clip-path="url(#clip0_301_163)">
<path d="M7.9278 0H92.3028C96.6175 0 100.115 3.49778 100.115 7.8125V92.1875C100.115 96.5022 96.6175 100 92.3028 100H7.9278C3.61307 100 0.115295 96.5022 0.115295 92.1875V7.8125C0.115295 3.49778 3.61307 0 7.9278 0Z" fill="#1E1E1E"/>
<path d="M58.9114 78.3106V89.0996C60.6661 89.9988 62.7415 90.673 65.1372 91.1227C67.5329 91.5723 70.0579 91.7969 72.7126 91.7969C75.2993 91.7969 77.7571 91.5496 80.0852 91.0551C82.4133 90.5605 84.4551 89.7457 86.2094 88.6109C87.9641 87.4758 89.3532 85.9922 90.377 84.1602C91.4005 82.3285 91.9122 80.0641 91.9122 77.3668C91.9122 75.4113 91.6196 73.6973 91.0348 72.225C90.4501 70.7527 89.6063 69.4434 88.504 68.2973C87.402 67.1508 86.0801 66.1227 84.5395 65.2121C82.9985 64.302 81.2606 63.4422 79.3258 62.6332C77.9087 62.0484 76.638 61.4812 75.513 60.9305C74.3883 60.3797 73.4321 59.818 72.645 59.2445C71.8575 58.6715 71.2501 58.0645 70.8227 57.4238C70.3954 56.7832 70.1817 56.0586 70.1817 55.2492C70.1817 54.5074 70.3727 53.8391 70.7551 53.2434C71.1376 52.6477 71.6778 52.1363 72.3751 51.7094C73.0723 51.282 73.927 50.9508 74.9395 50.7145C75.9516 50.4785 77.0766 50.3605 78.3137 50.3605C79.2137 50.3605 80.1641 50.4281 81.1649 50.5629C82.1661 50.6977 83.1727 50.9055 84.1852 51.1867C85.1973 51.4676 86.1813 51.8215 87.1376 52.2488C88.0934 52.6758 88.9766 53.1703 89.7864 53.732V43.6512C88.1442 43.0219 86.3501 42.5555 84.4044 42.252C82.4587 41.9484 80.2258 41.7969 77.7063 41.7969C75.1419 41.7969 72.7126 42.0723 70.418 42.623C68.1235 43.1734 66.1044 44.0332 64.361 45.202C62.6176 46.3711 61.2399 47.8602 60.2274 49.6695C59.2153 51.4789 58.709 53.6422 58.709 56.1598C58.709 59.3738 59.6368 62.116 61.493 64.3863C63.3489 66.6562 66.1661 68.5781 69.9454 70.1516C71.4301 70.7586 72.8137 71.3539 74.0958 71.9387C75.3782 72.523 76.486 73.1297 77.4196 73.759C78.3532 74.3883 79.0899 75.0738 79.6298 75.8156C80.1696 76.5574 80.4395 77.4004 80.4395 78.3445C80.4395 79.041 80.2708 79.6875 79.9333 80.2832C79.5962 80.8785 79.084 81.3957 78.3981 81.834C77.7122 82.2723 76.8571 82.6148 75.8337 82.8621C74.8102 83.1094 73.6122 83.2332 72.2399 83.2332C69.9005 83.2332 67.5837 82.823 65.2891 82.0023C62.9942 81.182 60.8684 79.9516 58.9114 78.3106ZM40.9286 51.4617H54.8028V42.5781H16.1309V51.4617H29.9374V91.0156H40.9286V51.4617Z" fill="white"/>
</g>
<defs>
<clipPath id="clip0_301_163">
<rect width="100" height="100" fill="white" transform="translate(0.115295)"/>
</clipPath>
</defs>
</svg>
