<svg width="100" height="100" viewBox="0 0 100 100" fill="none" xmlns="http://www.w3.org/2000/svg">
<path d="M77.3375 54.825C72.7458 54.825 68.4417 52.8792 64.5292 49.7125L65.4792 45.2292L65.5125 45.0542C66.375 40.2917 69.05 32.3042 77.3417 32.3042C83.5583 32.3042 88.6042 37.3542 88.6042 43.5667C88.6 49.7709 83.5542 54.825 77.3375 54.825ZM77.3375 20.9084C66.7583 20.9084 58.5458 27.7792 55.2125 39.1C50.1292 31.4584 46.2625 22.2834 44.0167 14.55H32.6167V44.1834C32.6083 50.0417 27.8625 54.7917 22.0042 54.8C16.15 54.7917 11.4083 50.0375 11.4 44.1834V14.55H0V44.1834C0 56.325 9.875 66.2792 22.0042 66.2792C34.1417 66.2792 44.0167 56.325 44.0167 44.1834V39.225C46.2208 43.8375 48.9417 48.5125 52.2417 52.6459L45.2708 85.45H56.925L61.9792 61.6584C66.4083 64.4875 71.5 66.2792 77.3375 66.2792C89.8375 66.2792 100 56.0625 100 43.5709C100 31.0709 89.8375 20.9084 77.3375 20.9084Z" fill="black"/>
</svg>
